<?xml version="1.0" encoding="us-ascii" standalone="no"?><svg xmlns="http://www.w3.org/2000/svg" xmlns:xlink="http://www.w3.org/1999/xlink" contentStyleType="text/css" height="381px" preserveAspectRatio="none" style="width:805px;height:381px;background:#FFFFFF;" version="1.1" viewBox="0 0 805 381" width="805px" zoomAndPan="magnify"><defs/><g><!--cluster 6ebb7423072c5943f52c11274fd71b0b--><g id="cluster_6ebb7423072c5943f52c11274fd71b0b"><polygon fill="none" points="16,16,26,6,380,6,380,163.49,370,173.49,16,173.49,16,16" style="stroke:#181818;stroke-width:1.0;"/><line style="stroke:#181818;stroke-width:1.0;" x1="370" x2="380" y1="16" y2="6"/><line style="stroke:#181818;stroke-width:1.0;" x1="16" x2="370" y1="16" y2="16"/><line style="stroke:#181818;stroke-width:1.0;" x1="370" x2="370" y1="16" y2="173.49"/><text fill="#000000" font-family="sans-serif" font-size="14" font-weight="bold" lengthAdjust="spacing" textLength="83" x="152.5" y="31.9951">Dynamodb</text></g><!--cluster ba39a5f0aa547715c4df694144393752--><g id="cluster_ba39a5f0aa547715c4df694144393752"><polygon fill="none" points="404,16,414,6,788,6,788,163.49,778,173.49,404,173.49,404,16" style="stroke:#181818;stroke-width:1.0;"/><line style="stroke:#181818;stroke-width:1.0;" x1="778" x2="788" y1="16" y2="6"/><line style="stroke:#181818;stroke-width:1.0;" x1="404" x2="778" y1="16" y2="16"/><line style="stroke:#181818;stroke-width:1.0;" x1="778" x2="778" y1="16" y2="173.49"/><text fill="#000000" font-family="sans-serif" font-size="14" font-weight="bold" lengthAdjust="spacing" textLength="92" x="546" y="31.9951">Apigateway</text></g><!--cluster 04a7da3c5b04cad85da1eebb92315b8b--><g id="cluster_04a7da3c5b04cad85da1eebb92315b8b"><polygon fill="none" points="434,207.49,444,197.49,758,197.49,758,354.97,748,364.97,434,364.97,434,207.49" style="stroke:#181818;stroke-width:1.0;"/><line style="stroke:#181818;stroke-width:1.0;" x1="748" x2="758" y1="207.49" y2="197.49"/><line style="stroke:#181818;stroke-width:1.0;" x1="434" x2="748" y1="207.49" y2="207.49"/><line style="stroke:#181818;stroke-width:1.0;" x1="748" x2="748" y1="207.49" y2="364.97"/><text fill="#000000" font-family="sans-serif" font-size="14" font-weight="bold" lengthAdjust="spacing" textLength="61" x="561.5" y="223.4851">Lambda</text></g><!--entity ae024bdc6a9466a239e7a1c0cf4aea82--><g id="elem_ae024bdc6a9466a239e7a1c0cf4aea82"><rect fill="#F1F1F1" height="111.4844" rx="2.5" ry="2.5" style="stroke:#181818;stroke-width:0.5;" width="332" x="32" y="46"/><rect fill="#F1F1F1" height="10" style="stroke:#181818;stroke-width:0.5;" width="15" x="344" y="51"/><rect fill="#F1F1F1" height="2" style="stroke:#181818;stroke-width:0.5;" width="4" x="342" y="53"/><rect fill="#F1F1F1" height="2" style="stroke:#181818;stroke-width:0.5;" width="4" x="342" y="57"/><text fill="#000000" font-family="sans-serif" font-size="14" font-weight="bold" lengthAdjust="spacing" textLength="292" x="47" y="78.9951">dynamodb_my-resume-website-table</text><text fill="#000000" font-family="sans-serif" font-size="14" lengthAdjust="spacing" textLength="4" x="47" y="95.292">&#160;</text><text fill="#000000" font-family="sans-serif" font-size="14" lengthAdjust="spacing" textLength="229" x="47" y="111.5889">terraform name: resume_website</text><text fill="#000000" font-family="sans-serif" font-size="14" lengthAdjust="spacing" textLength="254" x="47" y="127.8857">terraform type: aws_dynamodb_table</text><text fill="#000000" font-family="sans-serif" font-size="14" lengthAdjust="spacing" textLength="4" x="47" y="144.1826">&#160;</text></g><!--entity 267e143496517adc7a30100c28327879--><g id="elem_267e143496517adc7a30100c28327879"><rect fill="#F1F1F1" height="111.4844" rx="2.5" ry="2.5" style="stroke:#181818;stroke-width:0.5;" width="351" x="420.5" y="46"/><rect fill="#F1F1F1" height="10" style="stroke:#181818;stroke-width:0.5;" width="15" x="751.5" y="51"/><rect fill="#F1F1F1" height="2" style="stroke:#181818;stroke-width:0.5;" width="4" x="749.5" y="53"/><rect fill="#F1F1F1" height="2" style="stroke:#181818;stroke-width:0.5;" width="4" x="749.5" y="57"/><text fill="#000000" font-family="sans-serif" font-size="14" font-weight="bold" lengthAdjust="spacing" textLength="311" x="435.5" y="78.9951">apigateway_API for my resume website</text><text fill="#000000" font-family="sans-serif" font-size="14" lengthAdjust="spacing" textLength="4" x="435.5" y="95.292">&#160;</text><text fill="#000000" font-family="sans-serif" font-size="14" lengthAdjust="spacing" textLength="227" x="435.5" y="111.5889">terraform name: resume-website</text><text fill="#000000" font-family="sans-serif" font-size="14" lengthAdjust="spacing" textLength="285" x="435.5" y="127.8857">terraform type: aws_api_gateway_rest_api</text><text fill="#000000" font-family="sans-serif" font-size="14" lengthAdjust="spacing" textLength="4" x="435.5" y="144.1826">&#160;</text></g><!--entity cdaad6c9bd3fd2840bb982377511d511--><g id="elem_cdaad6c9bd3fd2840bb982377511d511"><rect fill="#F1F1F1" height="111.4844" rx="2.5" ry="2.5" style="stroke:#181818;stroke-width:0.5;" width="293" x="449.5" y="237.49"/><rect fill="#F1F1F1" height="10" style="stroke:#181818;stroke-width:0.5;" width="15" x="722.5" y="242.49"/><rect fill="#F1F1F1" height="2" style="stroke:#181818;stroke-width:0.5;" width="4" x="720.5" y="244.49"/><rect fill="#F1F1F1" height="2" style="stroke:#181818;stroke-width:0.5;" width="4" x="720.5" y="248.49"/><text fill="#000000" font-family="sans-serif" font-size="14" font-weight="bold" lengthAdjust="spacing" textLength="123" x="464.5" y="270.4851">lambda_handler</text><text fill="#000000" font-family="sans-serif" font-size="14" lengthAdjust="spacing" textLength="4" x="464.5" y="286.782">&#160;</text><text fill="#000000" font-family="sans-serif" font-size="14" lengthAdjust="spacing" textLength="229" x="464.5" y="303.0789">terraform name: resume_website</text><text fill="#000000" font-family="sans-serif" font-size="14" lengthAdjust="spacing" textLength="253" x="464.5" y="319.3757">terraform type: aws_lambda_function</text><text fill="#000000" font-family="sans-serif" font-size="14" lengthAdjust="spacing" textLength="4" x="464.5" y="335.6726">&#160;</text></g><!--link 267e143496517adc7a30100c28327879 to cdaad6c9bd3fd2840bb982377511d511--><g id="link_267e143496517adc7a30100c28327879_cdaad6c9bd3fd2840bb982377511d511"><path codeLine="29" d="M596,157.8 C596,182.72 596,212.1 596,237.03 " fill="none" id="267e143496517adc7a30100c28327879-cdaad6c9bd3fd2840bb982377511d511" style="stroke:#181818;stroke-width:1.0;"/></g><!--SRC=[dP5DIyGm48Rl_HN1Ow6GpwRnjk15yE1Tf4moqxNGj4lRfHRnlrkxTLa5NV2GI-RboVjae6cwATQlTRjFsWw9tTpDBSGE_Gs3WUNalTLISIk3SLfLHWOXfDKLMk6vPsy92rqyT2sr8mFYKdiCEJYTvo2L8miYy51f82WaUqhI53T-6UUif-4OAPl83_L8sGY-eJHDaf7w7ggkZsp9qYqxvSejTp4UvyCoXcaepzWLaYJFoVicj3lKUnXfWdbLyg0Sc8e366sjC45ZbJijj5PEMIE_AydSaj1Akzm82nWiA2uu3x9GqXRMhKfmVg7SFTwpfHcByrQQRQL_ryh-qbhGvHTxYO-V5vTo3n0zmYh6DLW45OpdEW0M1a7GiZydbJ2- -B6hW02O1-THLIWBpPTW8PMrHWXSpYhMhFJo1LfigF_dPZP8TMp3M7VjgVtLVyqmkzhn0m00]--></g></svg>